<svg xmlns="http://www.w3.org/2000/svg" xmlns:xlink="http://www.w3.org/1999/xlink" width="75" viewBox="0 0 75 45" height="45" version="1.0"><defs><g id="a"><path d="M 5.941406 0.136719 C 7.480469 0.578125 9.101562 0.441406 10.535156 -0.273438 C 12.265625 -1.15625 13.421875 -2.75 13.421875 -4.59375 C 13.421875 -6.4375 12.292969 -8.113281 10.367188 -9.019531 L 5.609375 -11.222656 C 4.261719 -11.910156 3.136719 -13.230469 3.136719 -14.660156 L 3.136719 -14.851562 C 3.21875 -16.886719 5.199219 -18.894531 7.234375 -19.003906 C 7.398438 -19.03125 7.5625 -19.03125 7.753906 -19.003906 C 9.707031 -18.921875 11.523438 -17.738281 12.707031 -15.785156 L 13.035156 -15.980469 L 12.707031 -17.382812 C 12.679688 -17.410156 11.796875 -17.988281 10.726562 -18.480469 C 10.589844 -18.535156 10.449219 -18.621094 10.3125 -18.703125 C 9.515625 -19.140625 8.636719 -19.472656 7.753906 -19.472656 C 7.535156 -19.472656 7.34375 -19.472656 7.152344 -19.445312 C 4.59375 -19.308594 2.558594 -17.4375 2.449219 -14.90625 L 2.449219 -14.632812 C 2.449219 -12.84375 3.492188 -11.195312 5.144531 -10.339844 L 9.847656 -8.167969 C 10.476562 -7.867188 11.054688 -7.507812 11.523438 -7.011719 C 12.210938 -6.296875 12.652344 -5.472656 12.652344 -4.59375 C 12.652344 -3.824219 12.375 -3.023438 11.9375 -2.308594 C 10.367188 0.246094 7.011719 0.550781 4.648438 -0.933594 C 3.464844 -1.675781 2.476562 -2.832031 1.734375 -4.234375 C 1.734375 -4.261719 1.707031 -4.261719 1.707031 -4.261719 L 1.375 -4.070312 L 1.375 -4.042969 L 1.871094 -1.953125 C 1.898438 -1.925781 2.832031 -1.320312 4.097656 -0.660156 C 4.234375 -0.578125 4.402344 -0.523438 4.539062 -0.441406 C 4.976562 -0.191406 5.445312 0 5.941406 0.136719 Z M 5.941406 0.136719"/></g><g id="b"><path d="M 1.375 -0.386719 L 1.375 0 L 5.886719 0 L 5.886719 -0.386719 L 5.527344 -0.386719 C 5.03125 -0.414062 4.125 -0.550781 4.125 -1.046875 L 4.125 -10.589844 L 13.859375 -10.589844 L 13.859375 -1.046875 C 13.859375 -0.550781 12.953125 -0.414062 12.457031 -0.386719 L 12.101562 -0.386719 L 12.101562 0 L 16.613281 0 L 16.613281 -0.386719 L 16.28125 -0.386719 C 15.757812 -0.414062 14.851562 -0.550781 14.851562 -1.046875 L 14.851562 -18.371094 C 14.851562 -18.839844 15.757812 -18.976562 16.28125 -19.03125 L 16.613281 -19.03125 L 16.613281 -19.417969 L 12.101562 -19.417969 L 12.101562 -19.03125 L 12.457031 -19.03125 C 12.953125 -18.976562 13.859375 -18.839844 13.859375 -18.371094 L 13.859375 -10.972656 L 4.125 -10.972656 L 4.125 -18.371094 C 4.125 -18.839844 5.03125 -18.976562 5.527344 -19.03125 L 5.886719 -19.03125 L 5.886719 -19.417969 L 1.375 -19.417969 L 1.375 -19.03125 L 1.707031 -19.03125 C 2.226562 -18.976562 3.109375 -18.839844 3.136719 -18.371094 L 3.136719 -1.046875 C 3.136719 -0.550781 2.226562 -0.414062 1.707031 -0.386719 Z M 1.375 -0.386719"/></g><g id="c"><path d="M 7.09375 -0.414062 L 7.09375 0 L 11.605469 0 L 11.605469 -0.414062 C 10.644531 -0.414062 9.847656 -0.578125 9.847656 -1.074219 L 9.847656 -8.71875 L 15.402344 -18.398438 C 15.675781 -18.949219 16.390625 -19.058594 17.355469 -19.058594 L 17.355469 -19.445312 L 13.394531 -19.445312 L 13.394531 -19.058594 C 14.355469 -19.058594 15.238281 -18.949219 14.960938 -18.398438 L 9.625 -9.1875 L 4.316406 -18.398438 C 4.097656 -18.894531 4.921875 -19.03125 5.886719 -19.03125 L 5.886719 -19.445312 L 1.375 -19.445312 L 1.375 -19.03125 C 2.335938 -19.03125 2.886719 -18.921875 3.191406 -18.398438 L 8.855469 -8.554688 L 8.855469 -1.074219 C 8.855469 -0.578125 8.058594 -0.414062 7.09375 -0.414062 Z M 7.09375 -0.414062"/></g><g id="d"><path d="M 4.617188 -26.371094 C 5.488281 -26.371094 6.425781 -26.238281 7.429688 -26.003906 C 6.324219 -26.839844 5.1875 -27.273438 4.050781 -27.273438 C 2.675781 -27.273438 1.671875 -26.738281 1.003906 -25.699219 C 0.636719 -25.164062 0.46875 -24.628906 0.46875 -24.09375 C 0.46875 -23.527344 0.636719 -22.957031 0.96875 -22.386719 C 1.574219 -21.351562 2.8125 -20.847656 4.683594 -20.847656 C 6.558594 -20.847656 9.167969 -21.382812 12.449219 -22.488281 L 13.789062 -22.855469 L 15.527344 -22.386719 L 15.527344 -12.25 C 14.324219 -12.582031 13.183594 -12.882812 12.113281 -13.152344 L 12.113281 -21.449219 C 11.710938 -21.316406 11.109375 -21.148438 10.308594 -20.914062 C 9.503906 -20.648438 8.933594 -20.480469 8.535156 -20.347656 L 8.535156 -13.519531 C 6.859375 -13.453125 5.757812 -12.917969 5.21875 -11.945312 C 4.886719 -11.34375 4.71875 -10.777344 4.71875 -10.242188 C 4.71875 -9.671875 4.886719 -9.136719 5.21875 -8.632812 C 5.890625 -7.597656 6.894531 -7.09375 8.265625 -7.09375 L 8.535156 -7.09375 L 8.535156 4.484375 L 7.195312 5.554688 C 7.765625 5.554688 8.230469 5.621094 8.601562 5.757812 L 8.601562 6.222656 C 8.800781 6.222656 9.003906 6.324219 9.203125 6.492188 C 9.269531 6.558594 9.371094 6.894531 9.503906 7.429688 C 9.636719 7.964844 9.773438 8.5 9.9375 8.96875 C 10.074219 9.4375 10.207031 9.671875 10.339844 9.671875 C 10.40625 9.671875 10.542969 9.4375 10.707031 8.96875 C 10.84375 8.5 11.011719 7.964844 11.144531 7.429688 C 11.277344 6.894531 11.378906 6.558594 11.445312 6.492188 C 11.644531 6.324219 11.847656 6.222656 12.046875 6.222656 L 12.113281 6.222656 L 12.113281 5.722656 C 12.382812 5.621094 12.851562 5.554688 13.453125 5.554688 L 12.113281 4.484375 L 12.113281 -10.242188 C 13.21875 -9.9375 14.355469 -9.570312 15.527344 -9.136719 L 15.527344 0.335938 L 14.222656 1.4375 C 14.824219 1.4375 15.292969 1.507812 15.59375 1.605469 L 15.59375 2.074219 C 15.730469 2.074219 15.894531 2.175781 16.128906 2.34375 C 16.195312 2.441406 16.296875 2.742188 16.429688 3.28125 C 16.566406 3.816406 16.734375 4.351562 16.898438 4.820312 C 17.066406 5.289062 17.199219 5.523438 17.335938 5.523438 C 17.433594 5.523438 17.570312 5.289062 17.703125 4.785156 C 17.835938 4.316406 18.003906 3.78125 18.136719 3.246094 C 18.273438 2.710938 18.339844 2.410156 18.371094 2.34375 C 18.574219 2.207031 18.773438 2.109375 19.042969 2.109375 L 19.042969 1.605469 C 19.308594 1.507812 19.777344 1.4375 20.378906 1.4375 L 20.445312 1.4375 L 19.042969 0.335938 L 19.042969 -9.503906 C 19.175781 -9.570312 19.410156 -9.703125 19.675781 -9.839844 C 19.945312 -9.972656 20.144531 -10.074219 20.3125 -10.171875 L 19.042969 -10.875 L 19.042969 -23.859375 L 20.445312 -24.964844 C 19.910156 -24.964844 19.476562 -25 19.207031 -25.097656 C 18.941406 -25.164062 18.773438 -25.265625 18.707031 -25.398438 C 18.640625 -25.5 18.574219 -25.601562 18.539062 -25.734375 C 18.472656 -25.867188 18.371094 -25.96875 18.171875 -26.070312 C 17.972656 -26.136719 17.703125 -26.203125 17.335938 -26.203125 C 16.867188 -26.203125 16.5 -26.101562 16.230469 -25.902344 C 15.960938 -25.699219 15.761719 -25.601562 15.628906 -25.601562 C 15.292969 -25.601562 14.691406 -25.835938 13.789062 -26.371094 C 12.683594 -25.734375 11.109375 -25.097656 9.035156 -24.429688 C 6.960938 -23.761719 5.289062 -23.457031 3.949219 -23.457031 C 2.777344 -23.457031 2.109375 -23.691406 1.90625 -24.195312 C 1.839844 -24.328125 1.773438 -24.53125 1.773438 -24.730469 C 1.773438 -24.863281 1.808594 -25.03125 1.875 -25.234375 C 1.972656 -25.535156 2.207031 -25.769531 2.609375 -25.96875 C 3.179688 -26.238281 3.847656 -26.371094 4.617188 -26.371094 Z M 6.15625 -10.140625 C 6.425781 -10.609375 7.128906 -10.875 8.265625 -10.875 L 8.535156 -10.875 L 7.261719 -10.171875 C 7.394531 -10.074219 7.628906 -9.972656 7.898438 -9.839844 C 8.164062 -9.703125 8.367188 -9.570312 8.535156 -9.503906 L 8.535156 -8 C 7.796875 -8.03125 7.226562 -8.164062 6.828125 -8.367188 C 6.492188 -8.535156 6.257812 -8.800781 6.125 -9.136719 C 5.992188 -9.46875 5.992188 -9.804688 6.15625 -10.140625 Z M 6.15625 -10.140625"/></g></defs><g fill="#FF1616"><use x="21.097" y="30.367" xmlns:xlink="http://www.w3.org/1999/xlink" xlink:href="#a" xlink:type="simple" xlink:actuate="onLoad" xlink:show="embed"/></g><g fill="#FF1616"><use x="35.888" y="30.367" xmlns:xlink="http://www.w3.org/1999/xlink" xlink:href="#b" xlink:type="simple" xlink:actuate="onLoad" xlink:show="embed"/></g><g fill="#FF1616"><use x="53.868" y="30.367" xmlns:xlink="http://www.w3.org/1999/xlink" xlink:href="#c" xlink:type="simple" xlink:actuate="onLoad" xlink:show="embed"/></g><g fill="#FF1616"><use x="2.139" y="33" xmlns:xlink="http://www.w3.org/1999/xlink" xlink:href="#d" xlink:type="simple" xlink:actuate="onLoad" xlink:show="embed"/></g></svg>